<?xml version="1.0" encoding="UTF-8"?>
<svg id="Layer_1" xmlns="http://www.w3.org/2000/svg" version="1.1" viewBox="0 0 308.83 250.32">
  <!-- Generator: Adobe Illustrator 30.6.0, SVG Export Plug-In . SVG Version: 2.1.4 Build 109)  -->
  <defs>
    <style>
      .st0 {
        fill: #e6b04b;
      }

      .st1 {
        fill: #545135;
      }

      .st2 {
        fill: #a8a37b;
      }

      .st3 {
        fill: #b8662c;
      }

      .st4 {
        fill: #f7f4eb;
      }
    </style>
  </defs>
  <g>
    <g>
      <path class="st1" d="M94.26,183.43c0,3.81-.63,7.32-2.22,10.68-3.39,7.2-11.72,10.55-19.07,7.39-3.25-1.4-5.51-4.07-7.26-7.1-2.11-3.66-2.9-7.62-3.18-11.91v-29.9s-9.54,0-9.54,0v30.36c.33,4.86,1.52,9.37,4.26,13.32,5.02,7.25,13.47,10.91,22.24,10.29,6.81-.48,12.68-4.06,15.82-10.12,1.86-3.59,2.88-7.44,2.88-11.6l.02-32.22-3.97.04v30.77Z"/>
      <path class="st1" d="M192.31,155.95c-6.12-3.74-13.29-4.73-20.24-2.67-11.01,3.27-18.95,13.38-19.59,24.88-.45,8.2,2.85,16.01,8.79,21.55,3.61,3.38,7.82,5.78,12.88,6.57,13.2,2.06,25.36-5.76,29.71-17.93,4.33-12.1-.63-25.71-11.54-32.39ZM192.36,191.63c-1.56,3.03-3.36,5.59-6.04,7.8-4.12,3.39-9.62,4.36-14.44,2.18-3.94-1.79-6.7-5.18-8.18-9.3-2.62-7.29-2.13-15.27.64-22.49,1.52-3.96,3.69-7.4,6.82-10.16,5.22-4.62,12.66-4.82,18-.22,2.78,2.4,4.7,5.71,5.64,9.36,1.99,7.71,1.2,15.82-2.43,22.84Z"/>
      <path class="st1" d="M28.69,152.57l-5.63.09L0,206h4.72c8.18-8.34,19.16-13.22,31.02-13.59l5.88,13.64h10.11s-17.18-39.84-17.18-39.84l-5.86-13.64ZM7.72,198.34l15.2-35.46,11.17,25.83c-9.73.64-18.55,3.97-26.37,9.63Z"/>
      <path class="st1" d="M134.98,189.88c5.17-1.73,9.19-5.05,11.27-9.91,2.59-6.08,2.22-12.99-1.31-18.61-2.41-3.83-6.18-6.31-10.42-7.71-2.62-.8-5.12-1.09-7.9-1.08l-20.6.04v53.42s9.54.01,9.54.01v-14.41c7.25.11,15.24,1.26,19.79,7.13,1.59,2.19,2.51,4.6,3.09,7.28l9.66-.04c-.72-3.35-1.82-6.19-3.58-8.87-2.36-3.38-5.7-5.71-9.54-7.26ZM115.56,187.83v-31.28c7.38-.16,14.87-.19,19.7,5.82,3.99,5.73,4,13.37.07,19.26-4.86,5.97-12.65,6.45-19.77,6.2Z"/>
      <path class="st1" d="M240.06,189.88c5.17-1.73,9.19-5.05,11.27-9.91,2.59-6.08,2.22-12.99-1.31-18.61-2.41-3.83-6.18-6.31-10.42-7.71-2.62-.8-5.12-1.09-7.9-1.08l-20.6.04v53.42s9.54.01,9.54.01v-14.41c7.25.11,15.24,1.26,19.79,7.13,1.59,2.19,2.51,4.6,3.09,7.28l9.66-.04c-.72-3.35-1.82-6.19-3.58-8.87-2.36-3.38-5.7-5.71-9.54-7.26ZM220.64,187.83v-31.28c7.38-.16,14.87-.19,19.7,5.82,3.99,5.73,4,13.37.07,19.26-4.86,5.97-12.65,6.45-19.77,6.2Z"/>
      <path class="st1" d="M285.79,152.57l-5.63.09-23.06,53.34h4.72c8.18-8.34,19.16-13.22,31.02-13.59l5.88,13.64h10.11s-17.18-39.84-17.18-39.84l-5.86-13.64ZM264.82,198.34l15.2-35.46,11.17,25.83c-9.73.64-18.55,3.97-26.37,9.63Z"/>
    </g>
    <g>
      <path class="st4" d="M199.27,4.06c-.03-2.14-.14-3.58-.4-3.58-6.45-.19-13.72-1.35-19.86.85-.71.25-1.42.55-2.17.65-.69.09-1.39.02-2.08-.04-7.72-.72-15.52-.64-23.22.23-.08.43-.16.86-.23,1.28-7.36-.71-14.8-.59-22.14.38-.14-.97-1.38-1.27-2.36-1.33-5.71-.33-11.44.23-17.14.57,0,0-.67,2.9-.67,2.9-1.17,5.04-.28,10.65-.33,15.79,0,.58.12,1.33.69,1.44-2.14,2.13-2.11,5.53-2.01,8.33.13,3.65-.42,7.78.69,11.3.37,1.18.96,2.3,1.26,3.5.34,1.35.3,2.77.26,4.16-.44,14.64-2.64,30.54.49,44.97.32,1.48.7,2.98,1.56,4.23.86,1.25,2.28,2.2,3.79,2.11-1.06.07-1.14,4.51-1.06,5.19.21,1.83,1.02,3.25,2.12,4.67,2.37,3.05,5.34,5.78,8.39,8.13,6.29,4.84,13.79,8.22,21.73,9.03,1.29.13,2.63.16,3.87-.23s2.39-1.26,2.83-2.48c.09-.26,6.29.03,7.19-.06,2.45-.24,4.88-.77,7.22-1.54,5.27-1.74,10.04-4.73,14.27-8.29.07-.06,7.41-6.3,8.25-9.63.26-1.02.15-1.97-.32-2.87,0,0,1.41-.51,1.41-.51,3.58-1.29,4.58-4.33,4.99-7.82.58-4.96.96-9.94,1.14-14.92.14-3.82,1.47-9.49-1.1-12.72v-19.38c-.01-.21-.04-1.13-.53-2.1,0,0,1.43-.38,1.43-.38.82-.22-.11-20.57-.12-22.26.5-.27,1-.53,1.51-.8.12-1.38.73-12.81.66-18.77Z"/>
      <path class="st1" d="M148.22,125.01c-12.39-1.52-21.66-7.22-28.96-16.23-1.19-1.48-1.45-3.27-.36-4.9l8.05-11.99c1.47-2.18,2.63-4.56,4.4-6.53,1.46-1.63,4.24-.97,5.95-.17,7.02,3.28,11.29,1.88,12.33,2.53,1.44.9.72,10.8.45,15.32-.4,6.62-.38,12.93.14,19.56.07.88-.56,2.59-2.01,2.41Z"/>
      <path class="st2" d="M179.41,113.17c-6.65,5.59-14.17,9.35-23.37,9.04l.06-5.55-.22-19.58c-.05-4.29-1.09-9.24-.22-9.82.96-.65,4.65-.09,9.4-1.29,2.63-.66,4.86-1.4,7.58-2.6,3.26,4.96,5.7,10.1,8.79,15.01l3.92,6.23c.25.23,1.07.7,1,1-.32,1.26-4.65,5.62-6.95,7.55Z"/>
      <path class="st3" d="M192.1,96.86c-.12,1.24-.89,2.15-2.15,2.61l-5.1-8.97-7.85-12.34-2.72-4.59c-1.78-3-3.69-5.75-5.62-8.67l-2.36-3.58c.83-1.36,2.91-3.16,3.89-3.44.44-.13,1.37.31,1.84.55l5.21,2.61c4.81,2.41,9.34,4.95,14.01,7.62,1.98,1.13,3.27,2.52,2.21,4.88-.02,3.32.18,6.83-.12,10.22l-.44,4.91-.82,8.2Z"/>
      <path class="st0" d="M116.51,97.66c-.17.52-1.52.16-1.69-.36-1.13-3.34-1.9-6.56-2.12-10.07-.34-5.54-.27-10.95,0-16.51.06-1.15.65-2.1,1.68-2.65,6.89-3.74,13.03-7.9,19.79-11.16.31-.15,1.31-.02,1.54.25l2.03,2.46c.89.64.85,1.71.25,2.5-2.21,2.92-4.05,5.81-5.58,9.13l-11.86,18.84c-1.54,2.44-3.08,4.69-4.04,7.59Z"/>
      <path class="st3" d="M135.67,32.99l-15.36-8.21c-2.55-1.36-5.17-2.67-7.59-4.18.42-4.75-.87-9.19.18-13.73l5.28-.32,4.5-.23c.95-.05,2.17.14,3.46.2l4.35,7.08,4.86,7.68c1.6,2.53,3.52,4.66,4.91,7.41-1.11,1.84-2.35,3.01-4.59,4.29Z"/>
      <path class="st0" d="M172.14,32.64l-1.48.87c-.99.58-2.17-2.5-4.76-4.61,1.72-2.39,2.8-4.99,4.18-7.48,2.47-4.43,5.22-8.6,7.99-12.86l1.86-2.87c.56-.86,1.41-1.39,2.56-1.41l7.22-.09,5.46.16c.22,3.02.11,6.33-.06,9.46l-.35,6.53c-6.48,3.34-12.5,6.78-18.73,10.53l-3.89,1.76Z"/>
      <path class="st0" d="M164.51,37.41c-2.04-2.94-5.48-4.57-9.17-5.23-4.52-.81-8.56.39-12.04,3.23-3.32,2.71-5.03,6.53-4.99,10.46-.08,2.67.62,5.75,2.79,8.88,2.04,2.94,5.48,4.57,9.17,5.23,4.52.81,8.56-.39,12.04-3.23,3.32-2.71,5.03-6.53,4.99-10.46.08-2.67-.62-5.75-2.79-8.88Z"/>
      <path class="st3" d="M162.04,26.13c-.18.26-.8.95-1.09.8l-1.31-.67c-1.38-.71-2.98-.87-4.79-1.13l-.21-9.45c-.07-3.28.07-6.59.45-9.77l6.37-.42c4.23-.28,8.55-.02,12.95.45l-3.53,6.04c-2.45,4.2-4.93,8.29-7.64,12.35l-1.21,1.81Z"/>
      <path class="st0" d="M131.66,43.16c-.79.49-2.5.48-3.69.49-5.09.07-9.83.06-14.92-.19-.86-.04-1.46-1.41-1.33-2.14-.3-4.69-.44-9.1-.31-13.7l.5-1.24c.13-.32,1.11-.32,1.42-.14,2.46,1.47,4.76,2.56,7.41,3.61,4.57,1.82,8.89,4.06,12.82,6.98-.89,2.17-1.44,3.84-1.89,6.33Z"/>
      <path class="st0" d="M150.71,17.21l.24,8.33c0,.24-.26.99-.5,1.03l-1.24.19-4.45.69c-2.49-4.29-4.92-8.32-7.64-12.46-1.62-2.47-3.08-4.6-4.43-7.61,2.97-.47,5.47-.38,8.31-.32l7.49.16c.51.01,1.27-.17,1.6,0,.39.19.85,1.15.83,1.61l-.22,8.39Z"/>
      <path class="st2" d="M149.89,81.46c.04,1.49-.5,2.7-2.14,3.29-4.62-.96-10.7-1.45-13.57-4.37.55-1.79,1.4-3.41,2.49-4.95,1.53-2.5,3.07-5,4.6-7.5.69-1.13,1.42-2.23,2.03-3.4.1-.2.21-.4.38-.53.37-.28.91-.02,1.29.1.58.18,1.16.34,1.76.48.67.16,1.36.25,2.04.36.31.05.85.03,1.04.3.24.35.23,1.27.24,1.68.03.7-.04,1.42-.06,2.12-.04,1.38-.08,2.76-.11,4.15-.06,2.75-.09,5.51,0,8.26Z"/>
      <path class="st3" d="M130.52,54.61c-4.82,2.63-9.45,4.82-13.99,7.59-.82.5-1.55.77-2.83,1.39-.22-1.2-.38-2.28-.38-3.44v-11.61c-.01-.56.32-1.38.72-1.86l16.37-.04c.56,0,1.81.53,2.17.82l.88,5.55-2.95,1.61Z"/>
      <path class="st0" d="M192.34,48.37v15.98c-5.21-3.01-10.15-5.59-15.45-8.05-1.74-.81-3.38-1.79-4.87-2.83l1.63-6,8.04-.09,8.96.21c.62.01,1.69-.04,1.69.78Z"/>
      <path class="st3" d="M176.19,43.36c-2.74-.07-1.78-2.22-3.38-5.76l4.99-2.86c2.28-1.31,4.38-2.49,6.73-3.65l8.61-4.25.09,15.99c-1.67.44-3.35.59-5.14.62l-5.13.09-6.77-.17Z"/>
      <path class="st1" d="M169.67,80.08c-.15.41-1,.86-1.64,1.06-5.48,1.7-12.57,4.3-12.47-.42.08-3.82.36-7.42-.03-11.13-.07-.64-.13-1.29-.19-1.93-.03-.32-.01-.67-.05-.98-.04-.28-.19-.53-.23-.81s0-.58.2-.79c.18-.19.45-.25.71-.31,1.3-.3,2.59-.6,3.89-.89,1.08-.25,1.37.7,1.82,1.48s.87,1.52,1.31,2.28c.58,1,1.14,2.01,1.73,3l4.68,7.91c.2.34.4,1.19.27,1.53Z"/>
    </g>
  </g>
  <g>
    <path class="st2" d="M118.59,247.75c.18.28.27.46.29.53.02.07,0,.16-.08.27-.07.14-.29.34-.66.58-.37.25-.75.46-1.14.64-.57.25-1.31.42-2.23.5-.92.09-1.93.05-3.05-.11-1.11-.16-2.31-.48-3.6-.95-1.29-.48-2.59-1.16-3.89-2.04-.5-.35-1.18-.86-2.07-1.54-.88-.67-1.76-1.35-2.62-2.04-.87-.69-1.64-1.29-2.33-1.8-.69-.51-1.09-.77-1.19-.77-.04,0-.09.12-.16.34-.07.23-.16.52-.27.87-.11.35-.22.73-.34,1.14-.12.41-.22.79-.29,1.14-.28,1.13-.5,1.7-.64,1.7-.07,0-.1.04-.08.11.02.07-.04.19-.19.37-.14.18-.23.26-.27.24-.04-.02-.32-.06-.85-.13-.5-.07-.8-.15-.93-.24-.12-.09-.19-.24-.19-.45,0-.04.06-.48.19-1.33.12-.85.29-1.94.5-3.28.21-1.34.45-2.86.72-4.56.27-1.7.54-3.43.82-5.22.28-1.78.56-3.52.85-5.22.28-1.7.53-3.21.74-4.56.21-1.34.39-2.44.53-3.28.14-.85.21-1.29.21-1.32.07-.25.17-.39.29-.42.12-.03.45-.02.98.05.46.07.73.12.82.13.09.02.17.1.24.24.03.07,0,.5-.11,1.27-.11.78-.24,1.73-.4,2.86-.16,1.13-.34,2.35-.56,3.66-.21,1.31-.42,2.52-.61,3.63-.19,1.11-.34,2.06-.45,2.83-.11.78-.16,1.2-.16,1.27,0-.03.19-.44.58-1.22.92-2.15,1.82-4.07,2.7-5.75.88-1.68,1.78-3.15,2.7-4.42.92-1.27,1.86-2.38,2.83-3.34.97-.95,2.02-1.8,3.15-2.54.6-.39,1.28-.73,2.04-1.03.76-.3,1.54-.49,2.33-.56.79-.07,1.57,0,2.33.19.76.2,1.44.59,2.04,1.19.88.92,1.42,2.07,1.62,3.47.19,1.4.17,2.66-.08,3.79-.35,1.52-1.01,3.08-1.96,4.69-.95,1.61-2.12,3.12-3.5,4.53-1.17,1.17-2.34,2.15-3.52,2.97-1.18.81-2.38,1.5-3.6,2.07s-2.48,1.04-3.79,1.43c-1.31.39-2.67.76-4.08,1.11,1.2.88,2.43,1.84,3.68,2.86,1.25,1.02,2.53,1.96,3.84,2.81,1.31.85,2.66,1.54,4.05,2.07,1.4.53,2.83.74,4.32.64.92-.07,1.6-.22,2.04-.45.44-.23.78-.41,1.01-.56.23-.14.43-.17.61-.08.18.09.44.43.79,1.03ZM97.5,237c2.37-.39,4.64-1.06,6.84-2.01.95-.42,1.93-.94,2.91-1.54.99-.6,1.96-1.3,2.91-2.09.95-.79,1.85-1.71,2.7-2.76.85-1.04,1.61-2.22,2.28-3.52.49-.95.83-1.79,1.01-2.52.18-.72.25-1.49.21-2.3-.07-2.83-1.24-4.08-3.5-3.76-1.06.14-2.09.53-3.1,1.17-1.01.64-1.95,1.41-2.83,2.33-.88.92-1.7,1.9-2.46,2.94-.76,1.04-1.4,2.02-1.93,2.94-.53.92-1.09,2.01-1.67,3.26-.58,1.25-1.13,2.46-1.64,3.6-.51,1.15-.93,2.14-1.25,2.97-.32.83-.48,1.26-.48,1.3Z"/>
    <path class="st2" d="M122.19,239.65c-.67-.11-1.31-.4-1.91-.87-.6-.48-1.06-1.01-1.38-1.62-.64-1.17-.82-2.46-.56-3.87.26-1.41.79-2.74,1.56-3.97.78-1.24,1.72-2.28,2.83-3.13,1.11-.85,2.2-1.27,3.26-1.27.78,0,1.38.2,1.8.61.42.41.65.95.69,1.62.03.67-.14,1.43-.53,2.28-.39.85-1.02,1.7-1.91,2.54-.92.92-1.82,1.48-2.7,1.7-.88.21-1.73.16-2.54-.16-.11.95-.03,1.72.24,2.3.27.58.66,1,1.19,1.25s1.15.33,1.85.24c.71-.09,1.41-.34,2.12-.77,1.02-.6,1.9-1.3,2.62-2.09.72-.79,1.44-1.63,2.15-2.52l1.91,1.43c-.11.21-.24.42-.4.61-.16.19-.29.38-.4.56-.6.81-1.27,1.57-2.01,2.28-.74.71-1.53,1.3-2.36,1.78-.83.48-1.71.82-2.65,1.03-.94.21-1.9.23-2.89.05ZM126.06,227.35c-.64.14-1.22.41-1.75.79-.53.39-.99.79-1.38,1.22-.39.42-.69.81-.9,1.17-.21.35-.32.55-.32.58,0,.14.18.2.53.19.35-.02.69-.1,1.01-.24.21-.11.46-.29.74-.56.28-.27.57-.57.87-.9.3-.34.56-.71.79-1.11.23-.41.36-.79.4-1.14Z"/>
    <path class="st2" d="M131.68,241.34c-.6-.14-1.08-.43-1.43-.87-.35-.44-.53-.96-.53-1.56s.2-1.25.61-1.96c.41-.71,1.07-1.39,1.99-2.07-.39-.6-.76-1.27-1.11-2.01-.35-.74-.39-1.62-.11-2.65.14-.6.38-1.12.72-1.56.34-.44.69-.79,1.06-1.06.37-.27.73-.44,1.09-.53.35-.09.62-.08.79.03.04,0,.08.1.13.29.05.2.1.4.13.61.03.21.06.42.08.64.02.21.03.35.03.42-.07.11-.16.19-.26.26-.28.07-.58.32-.9.74-.32.42-.51.81-.58,1.17-.07.39.04.83.34,1.32.3.5.57.88.82,1.17.88-.28,1.7-.55,2.44-.79.64-.21,1.25-.41,1.85-.61.6-.19,1.01-.33,1.22-.4l.95,2.12-5.09,1.8c.46.67.61,1.36.45,2.07-.16.71-.48,1.34-.95,1.91-.48.57-1.06,1-1.75,1.3-.69.3-1.35.38-1.99.24ZM133.64,237.05s-.14.08-.32.24c-.18.16-.35.34-.53.56-.18.21-.32.42-.42.61s-.14.33-.11.4c.03.07.14.09.32.05.18-.03.35-.11.53-.21.18-.11.34-.26.5-.45.16-.19.24-.4.24-.61,0-.39-.07-.58-.21-.58Z"/>
    <path class="st2" d="M140.84,237.79c-.32-.64-.55-1.3-.69-1.99-.14-.69-.22-1.37-.24-2.04-.02-.67,0-1.32.08-1.96.07-.64.16-1.24.27-1.8.14-.81.25-1.35.32-1.62.07-.27.19-.43.37-.5.03-.04.16-.04.37-.03.21.02.43.05.66.08.23.04.44.07.64.11.19.04.31.07.34.11.14.11.14.43,0,.98-.14.55-.26,1.14-.37,1.78-.14.81-.21,1.65-.21,2.52s.09,1.55.26,2.04c.18.64.4,1.15.66,1.54s.54.58.82.58c.42-.03.92-.49,1.48-1.35.56-.86,1.45-2.3,2.65-4.32l1.96,1.32c-.04.11-.17.36-.4.77-.23.41-.48.85-.74,1.32s-.53.93-.79,1.35c-.26.42-.47.74-.61.95-.6.85-1.22,1.47-1.85,1.85s-1.25.57-1.85.56c-.6-.02-1.17-.22-1.72-.61-.55-.39-1.02-.94-1.4-1.64ZM143.65,223.43c.25.21.18,1.15-.21,2.81-.04.25-.16.37-.37.37-.07.04-.19.04-.37.03-.18-.02-.34-.04-.48-.08-.28-.07-.51-.11-.69-.11s-.31-.05-.4-.16c-.09-.11-.12-.3-.11-.58.02-.28.1-.74.24-1.38.11-.49.22-.79.34-.9.12-.11.47-.12,1.03-.05.28,0,.51,0,.69.03.18.02.28.03.32.03Z"/>
    <path class="st2" d="M149.64,239.33c-.71-.35-1.21-.85-1.51-1.48-.3-.64-.45-1.48-.45-2.54,0-1.55.27-2.95.82-4.19.55-1.24,1.24-2.24,2.07-3.02.83-.78,1.73-1.3,2.7-1.56.97-.26,1.86-.22,2.68.13.35.14.69.35,1.01.64.32.28.49.41.53.37,0-.03.04-.26.11-.69.07-.42.19-1,.37-1.72.18-.72.41-1.58.69-2.57.28-.99.64-2.07,1.06-3.23.85-2.23,1.71-3.88,2.6-4.95.88-1.08,1.71-1.74,2.49-1.99.78-.25,1.43-.15,1.96.29.53.44.85,1.07.95,1.88.11.71.03,1.56-.21,2.57-.25,1.01-.6,2.07-1.06,3.18s-1,2.26-1.62,3.44c-.62,1.18-1.25,2.32-1.88,3.42-.64,1.1-1.25,2.09-1.85,2.99-.6.9-1.11,1.65-1.54,2.25.11,1.34.34,2.38.69,3.13.35.74.77,1.24,1.25,1.48s1.01.26,1.62.03c.6-.23,1.18-.63,1.75-1.19s1.01-1.14,1.32-1.72c.32-.58.76-1.37,1.32-2.36l2.17,1.11c-.07.14-.19.39-.37.74-.18.35-.38.73-.61,1.14s-.49.82-.77,1.24c-.28.42-.58.81-.9,1.17-.85.99-1.78,1.71-2.81,2.15-1.03.44-1.98.54-2.86.29-.78-.21-1.41-.55-1.91-1.01-.5-.46-.87-.93-1.14-1.4-.26-.48-.46-.91-.58-1.3-.12-.39-.2-.62-.24-.69-.04-.03-.17.08-.4.35-.23.26-.54.59-.93.98s-.84.8-1.35,1.24c-.51.44-1.05.81-1.62,1.11-.57.3-1.15.5-1.75.58-.6.09-1.2,0-1.8-.29ZM151.76,230.48c-.35.46-.65.96-.9,1.51-.25.55-.43,1.1-.56,1.67-.12.57-.19,1.1-.19,1.62s.07.96.21,1.35c.21.53.59.7,1.14.5.55-.19,1.14-.56,1.78-1.11s1.26-1.17,1.88-1.88c.62-.71,1.12-1.31,1.51-1.8.07-.07.1-.12.08-.16-.02-.03-.12-.09-.29-.16-.18-.07-.28-.16-.32-.27-.04-.11-.07-.41-.11-.9-.04-.67-.2-1.17-.5-1.48-.3-.32-.66-.49-1.09-.5-.42-.02-.87.11-1.35.4-.48.28-.91.69-1.3,1.22ZM165.27,214.95c-.92.92-1.7,2.06-2.36,3.42-.65,1.36-1.17,2.69-1.56,4-.5,1.52-.9,3.09-1.22,4.72,0,.14.18-.1.53-.72.35-.62.77-1.38,1.25-2.28.48-.9.94-1.82,1.4-2.76.46-.94.78-1.63.95-2.09.28-.71.52-1.42.72-2.15.19-.72.29-1.44.29-2.15Z"/>
    <path class="st2" d="M170.94,239.65c-.67-.11-1.31-.4-1.91-.87-.6-.48-1.06-1.01-1.38-1.62-.64-1.17-.82-2.46-.56-3.87.26-1.41.79-2.74,1.56-3.97.78-1.24,1.72-2.28,2.84-3.13s2.2-1.27,3.26-1.27c.78,0,1.38.2,1.8.61.42.41.65.95.69,1.62.03.67-.14,1.43-.53,2.28-.39.85-1.02,1.7-1.91,2.54-.92.92-1.82,1.48-2.7,1.7-.88.21-1.73.16-2.54-.16-.11.95-.03,1.72.24,2.3.27.58.66,1,1.19,1.25.53.25,1.15.33,1.85.24.71-.09,1.41-.34,2.12-.77,1.02-.6,1.9-1.3,2.62-2.09s1.44-1.63,2.15-2.52l1.91,1.43c-.11.21-.24.42-.4.61-.16.19-.29.38-.4.56-.6.81-1.27,1.57-2.01,2.28-.74.71-1.53,1.3-2.36,1.78s-1.71.82-2.65,1.03c-.94.21-1.9.23-2.89.05ZM174.81,227.35c-.64.14-1.22.41-1.75.79-.53.39-.99.79-1.38,1.22-.39.42-.69.81-.9,1.17-.21.35-.32.55-.32.58,0,.14.18.2.53.19.35-.02.69-.1,1.01-.24.21-.11.46-.29.74-.56.28-.27.57-.57.87-.9.3-.34.56-.71.79-1.11.23-.41.36-.79.4-1.14Z"/>
    <path class="st2" d="M179.68,238.9c-.25-.07-.45-.19-.61-.34s-.2-.43-.13-.82c.04-.35.1-.89.19-1.62.09-.72.19-1.49.29-2.3.11-.81.21-1.59.32-2.33.11-.74.19-1.27.26-1.59.46.07.86.12,1.22.16.18,0,.33,0,.45.03.12.02.25.04.4.08.11,0,.23.02.37.05-.11.95-.19,1.52-.24,1.7-.05.18.15-.12.61-.9.88-1.52,1.75-2.62,2.6-3.31.85-.69,1.61-.94,2.28-.77.53.14.91.46,1.14.95.23.5.39,1.08.48,1.75.09.67.14,1.37.16,2.09.02.72.04,1.39.08,1.99.03.6.11,1.1.24,1.51.12.41.36.61.71.61.18,0,.42-.17.74-.5.32-.34.64-.72.95-1.17.32-.44.63-.87.93-1.3.3-.42.52-.74.66-.95.03,0,.16.05.37.16.21.11.44.25.69.42.32.18.67.37,1.06.58-.21.35-.47.79-.77,1.3-.3.51-.62,1.01-.95,1.48-.34.48-.7.92-1.09,1.32s-.76.7-1.11.87c-.81.39-1.7.39-2.65,0-.95-.39-1.63-1.24-2.01-2.54-.04-.18-.07-.36-.11-.56-.03-.19-.07-.49-.11-.87-.04-.39-.06-.92-.08-1.59-.02-.67-.06-1.55-.13-2.65-.71.74-1.35,1.6-1.93,2.57-.58.97-1.1,1.91-1.56,2.81-.46.9-.86,1.69-1.22,2.36-.35.67-.65,1.1-.9,1.27-.39.21-.92.23-1.59.05Z"/>
    <path class="st2" d="M202.15,238.48c-1.41.95-2.74,1.47-3.97,1.54-1.24.07-2.27-.2-3.1-.82-.83-.62-1.4-1.54-1.7-2.76-.3-1.22-.22-2.62.24-4.21.46-1.59,1.02-2.84,1.7-3.76.67-.92,1.38-1.56,2.12-1.93.74-.37,1.45-.51,2.12-.42.67.09,1.24.35,1.7.79.46.44.74,1.04.85,1.8s-.04,1.62-.42,2.57l-2.28-.16c.03-.14.08-.35.13-.64.05-.28.09-.56.11-.85.02-.28,0-.53-.08-.74-.07-.21-.21-.32-.42-.32-.42,0-.85.22-1.27.66-.42.44-.8,1-1.14,1.67-.34.67-.6,1.4-.79,2.17-.19.78-.26,1.5-.21,2.17.05.67.24,1.23.56,1.67.32.44.83.66,1.54.66s1.39-.19,2.07-.58,1.33-.87,1.96-1.43c.64-.57,1.23-1.17,1.77-1.83.55-.65,1.03-1.26,1.46-1.83l1.8,1.59c-.28.42-.64.88-1.06,1.38-.42.5-.87.98-1.32,1.46-.46.48-.89.91-1.3,1.3-.41.39-.75.67-1.03.85Z"/>
    <path class="st2" d="M208.5,239.65c-.67-.11-1.31-.4-1.91-.87-.6-.48-1.06-1.01-1.38-1.62-.64-1.17-.82-2.46-.56-3.87.26-1.41.79-2.74,1.56-3.97.78-1.24,1.72-2.28,2.84-3.13,1.11-.85,2.2-1.27,3.26-1.27.78,0,1.38.2,1.8.61.42.41.65.95.69,1.62.03.67-.14,1.43-.53,2.28-.39.85-1.03,1.7-1.91,2.54-.92.92-1.82,1.48-2.7,1.7s-1.73.16-2.54-.16c-.11.95-.03,1.72.24,2.3.27.58.66,1,1.19,1.25.53.25,1.15.33,1.85.24.71-.09,1.41-.34,2.12-.77,1.02-.6,1.9-1.3,2.62-2.09.72-.79,1.44-1.63,2.15-2.52l1.91,1.43c-.11.21-.24.42-.4.61-.16.19-.29.38-.4.56-.6.81-1.27,1.57-2.01,2.28-.74.71-1.53,1.3-2.36,1.78-.83.48-1.71.82-2.65,1.03-.94.21-1.9.23-2.89.05ZM212.37,227.35c-.64.14-1.22.41-1.75.79-.53.39-.99.79-1.38,1.22-.39.42-.69.81-.9,1.17-.21.35-.32.55-.32.58,0,.14.18.2.53.19.35-.02.69-.1,1.01-.24.21-.11.46-.29.74-.56.28-.27.57-.57.87-.9.3-.34.56-.71.79-1.11.23-.41.36-.79.4-1.14Z"/>
  </g>
</svg>