<?xml version="1.0" encoding="UTF-8"?>
<svg id="Layer_1" xmlns="http://www.w3.org/2000/svg" version="1.1" viewBox="0 0 91.33 128">
  <!-- Generator: Adobe Illustrator 30.6.0, SVG Export Plug-In . SVG Version: 2.1.4 Build 109)  -->
  <defs>
    <style>
      .st0 {
        fill: #f8f5eb;
      }

      .st1 {
        fill: #555136;
      }

      .st2 {
        fill: #b9672a;
      }

      .st3 {
        fill: #e6b04a;
      }

      .st4 {
        fill: #a7a37b;
      }
    </style>
  </defs>
  <path class="st0" d="M91.31,4.03c-.03-2.13-.14-3.55-.4-3.55-6.4-.19-13.62-1.34-19.72.84-.71.25-1.41.55-2.15.65-.69.09-1.38.02-2.07-.04-7.67-.71-15.41-.64-23.06.23-.08.43-.16.85-.23,1.27-7.31-.71-14.7-.59-21.99.38-.14-.96-1.37-1.26-2.34-1.32-5.67-.33-11.36.23-17.02.57l-.67,2.88c-1.16,5-.28,10.58-.33,15.68,0,.58.12,1.32.69,1.43C-.09,25.15-.06,28.52.03,31.3c.13,3.62-.42,7.73.69,11.22.37,1.17.95,2.28,1.25,3.48.34,1.34.3,2.75.26,4.13-.44,14.54-2.62,30.33.49,44.66.32,1.47.7,2.96,1.55,4.2s2.26,2.18,3.76,2.1c-1.05.07-1.13,4.48-1.05,5.15.21,1.82,1.01,3.23,2.11,4.64,2.35,3.03,5.3,5.74,8.33,8.07,6.25,4.81,13.69,8.16,21.58,8.97,1.28.13,2.61.16,3.84-.23s2.37-1.25,2.81-2.46c.09-.26,6.25.03,7.14-.06,2.43-.24,4.85-.76,7.17-1.53,5.23-1.73,9.97-4.7,14.17-8.23.07-.06,7.36-6.26,8.19-9.56.26-1.01.15-1.96-.32-2.85l1.4-.51c3.55-1.28,4.55-4.3,4.96-7.77.58-4.93.95-9.87,1.13-14.82.14-3.79,1.46-9.42-1.09-12.63v-19.24c0-.21-.04-1.12-.53-2.09l1.42-.38c.81-.22-.11-20.43-.12-22.1.5-.27.99-.53,1.5-.79.12-1.37.72-12.72.66-18.64h0Z"/>
  <path class="st1" d="M40.62,124.13c-12.3-1.51-21.51-7.17-28.76-16.12-1.18-1.47-1.44-3.25-.36-4.87l7.99-11.91c1.46-2.16,2.61-4.53,4.37-6.48,1.45-1.62,4.21-.96,5.91-.17,6.97,3.26,11.21,1.87,12.24,2.51,1.43.89.71,10.72.45,15.21-.4,6.57-.38,12.84.14,19.42.07.87-.56,2.57-2,2.39h0Z"/>
  <path class="st4" d="M71.59,112.37c-6.6,5.55-14.07,9.28-23.21,8.98l.06-5.51-.22-19.44c-.05-4.26-1.08-9.18-.22-9.75.95-.65,4.62-.09,9.33-1.28,2.61-.66,4.83-1.39,7.53-2.58,3.24,4.93,5.66,10.03,8.73,14.9l3.89,6.19c.25.23,1.06.7.99.99-.32,1.25-4.62,5.58-6.9,7.5h0Z"/>
  <path class="st2" d="M84.19,96.18c-.12,1.23-.88,2.13-2.13,2.59l-5.06-8.91-7.8-12.25-2.7-4.56c-1.77-2.98-3.66-5.71-5.58-8.61l-2.34-3.55c.82-1.35,2.89-3.14,3.86-3.42.44-.13,1.36.31,1.83.55l5.17,2.59c4.78,2.39,9.27,4.92,13.91,7.57,1.97,1.12,3.25,2.5,2.19,4.85-.02,3.3.18,6.78-.12,10.15l-.44,4.88-.81,8.14h.02Z"/>
  <path class="st3" d="M9.13,96.97c-.17.52-1.51.16-1.68-.36-1.12-3.32-1.89-6.51-2.11-10-.34-5.5-.27-10.87,0-16.39.06-1.14.65-2.09,1.67-2.63,6.84-3.71,12.94-7.84,19.65-11.08.31-.15,1.3-.02,1.53.25l2.02,2.44c.88.64.84,1.7.25,2.48-2.19,2.9-4.02,5.77-5.54,9.07l-11.78,18.71c-1.53,2.42-3.06,4.66-4.01,7.54v-.02Z"/>
  <path class="st2" d="M28.16,32.75l-15.25-8.15c-2.53-1.35-5.13-2.65-7.54-4.15.42-4.72-.86-9.13.18-13.63l5.24-.32,4.47-.23c.94-.05,2.15.14,3.44.2l4.32,7.03,4.83,7.63c1.59,2.51,3.5,4.63,4.88,7.36-1.1,1.83-2.33,2.99-4.56,4.26h0Z"/>
  <path class="st3" d="M64.37,32.41l-1.47.86c-.98.58-2.15-2.48-4.73-4.58,1.71-2.37,2.78-4.96,4.15-7.43,2.45-4.4,5.18-8.54,7.93-12.77l1.85-2.85c.56-.85,1.4-1.38,2.54-1.4l7.17-.09,5.42.16c.22,3,.11,6.29-.06,9.39l-.35,6.48c-6.43,3.32-12.41,6.73-18.6,10.46l-3.86,1.75h0Z"/>
  <path class="st3" d="M56.79,37.14c-2.03-2.92-5.44-4.54-9.11-5.19-4.49-.8-8.5.39-11.96,3.21-3.3,2.69-4.99,6.48-4.96,10.39-.08,2.65.62,5.71,2.77,8.82,2.03,2.92,5.44,4.54,9.11,5.19,4.49.8,8.5-.39,11.96-3.21,3.3-2.69,4.99-6.48,4.96-10.39.08-2.65-.62-5.71-2.77-8.82Z"/>
  <path class="st2" d="M54.34,25.94c-.18.26-.79.94-1.08.79l-1.3-.67c-1.37-.71-2.96-.86-4.76-1.12l-.21-9.38c-.07-3.26.07-6.54.45-9.7l6.33-.42c4.2-.28,8.49-.02,12.86.45l-3.51,6c-2.43,4.17-4.9,8.23-7.59,12.26l-1.2,1.8h0Z"/>
  <path class="st3" d="M24.17,42.85c-.78.49-2.48.48-3.66.49-5.05.07-9.76.06-14.82-.19-.85-.04-1.45-1.4-1.32-2.13-.3-4.66-.44-9.04-.31-13.6l.5-1.23c.13-.32,1.1-.32,1.41-.14,2.44,1.46,4.73,2.54,7.36,3.58,4.54,1.81,8.83,4.03,12.73,6.93-.88,2.15-1.43,3.81-1.88,6.29h0Z"/>
  <path class="st3" d="M43.09,17.08l.24,8.27c0,.24-.26.98-.5,1.02l-1.23.19-4.42.69c-2.47-4.26-4.89-8.26-7.59-12.37-1.61-2.45-3.06-4.57-4.4-7.56,2.95-.47,5.43-.38,8.25-.32l7.44.16c.51,0,1.26-.17,1.59,0,.39.19.84,1.14.82,1.6l-.22,8.33h0Z"/>
  <path class="st4" d="M42.28,80.88c.04,1.48-.5,2.68-2.13,3.27-4.59-.95-10.63-1.44-13.48-4.34.55-1.78,1.39-3.39,2.47-4.92,1.52-2.48,3.05-4.96,4.57-7.45.69-1.12,1.41-2.21,2.02-3.38.1-.2.21-.4.38-.53.37-.28.9-.02,1.28.1.58.18,1.15.34,1.75.48.67.16,1.35.25,2.03.36.31.05.84.03,1.03.3.24.35.23,1.26.24,1.67.03.7-.04,1.41-.06,2.11-.04,1.37-.08,2.74-.11,4.12-.06,2.73-.09,5.47,0,8.2h0Z"/>
  <path class="st2" d="M23.04,54.22c-4.79,2.61-9.38,4.79-13.89,7.54-.81.5-1.54.76-2.81,1.38-.22-1.19-.38-2.26-.38-3.42v-11.53c0-.56.32-1.37.71-1.85l16.26-.04c.56,0,1.8.53,2.15.81l.87,5.51-2.93,1.6h0Z"/>
  <path class="st3" d="M84.43,48.03v15.87c-5.17-2.99-10.08-5.55-15.34-7.99-1.73-.8-3.36-1.78-4.84-2.81l1.62-5.96,7.98-.09,8.9.21c.62,0,1.68-.04,1.68.77h0Z"/>
  <path class="st2" d="M68.39,43.05c-2.72-.07-1.77-2.2-3.36-5.72l4.96-2.84c2.26-1.3,4.35-2.47,6.68-3.62l8.55-4.22.09,15.88c-1.66.44-3.33.59-5.1.62l-5.09.09-6.72-.17h0Z"/>
  <path class="st1" d="M61.92,79.51c-.15.41-.99.85-1.63,1.05-5.44,1.69-12.48,4.27-12.38-.42.08-3.79.36-7.37-.03-11.05-.07-.64-.13-1.28-.19-1.92-.03-.32,0-.67-.05-.97-.04-.28-.19-.53-.23-.8s0-.58.2-.78c.18-.19.45-.25.71-.31,1.29-.3,2.57-.6,3.86-.88,1.07-.25,1.36.7,1.81,1.47s.86,1.51,1.3,2.26c.58.99,1.13,2,1.72,2.98l4.65,7.85c.2.34.4,1.18.27,1.52Z"/>
</svg>